{
	"patcher" : 	{
		"fileversion" : 1,
		"rect" : [ 686.0, 183.0, 453.0, 362.0 ],
		"bglocked" : 0,
		"defrect" : [ 686.0, 183.0, 453.0, 362.0 ],
		"openrect" : [ 0.0, 0.0, 0.0, 0.0 ],
		"openinpresentation" : 0,
		"default_fontsize" : 9.0,
		"default_fontface" : 0,
		"default_fontname" : "Osaka",
		"gridonopen" : 0,
		"gridsize" : [ 13.0, 13.0 ],
		"gridsnaponopen" : 0,
		"toolbarvisible" : 1,
		"boxanimatetime" : 200,
		"imprint" : 0,
		"enablehscroll" : 1,
		"enablevscroll" : 1,
		"devicewidth" : 0.0,
		"boxes" : [ 			{
				"box" : 				{
					"maxclass" : "toggle",
					"outlettype" : [ "int" ],
					"presentation_rect" : [ 174.0, 156.0, 0.0, 0.0 ],
					"patching_rect" : [ 223.0, 133.0, 20.0, 20.0 ],
					"id" : "obj-33",
					"numinlets" : 1,
					"numoutlets" : 1
				}

			}
, 			{
				"box" : 				{
					"maxclass" : "message",
					"text" : "r a",
					"fontsize" : 9.0,
					"outlettype" : [ "" ],
					"patching_rect" : [ 130.0, 107.0, 32.825001, 17.0 ],
					"id" : "obj-32",
					"fontname" : "Osaka",
					"numinlets" : 2,
					"numoutlets" : 1
				}

			}
, 			{
				"box" : 				{
					"maxclass" : "toggle",
					"outlettype" : [ "int" ],
					"presentation_rect" : [ 138.0, 81.0, 0.0, 0.0 ],
					"patching_rect" : [ 130.0, 54.0, 20.0, 20.0 ],
					"id" : "obj-30",
					"numinlets" : 1,
					"numoutlets" : 1
				}

			}
, 			{
				"box" : 				{
					"maxclass" : "toggle",
					"outlettype" : [ "int" ],
					"patching_rect" : [ 68.0, 80.0, 20.0, 20.0 ],
					"id" : "obj-29",
					"numinlets" : 1,
					"numoutlets" : 1
				}

			}
, 			{
				"box" : 				{
					"maxclass" : "newobj",
					"text" : "loadbang",
					"fontsize" : 9.0,
					"outlettype" : [ "bang" ],
					"patching_rect" : [ 68.0, 56.0, 50.5, 19.0 ],
					"id" : "obj-27",
					"fontname" : "Osaka",
					"numinlets" : 1,
					"numoutlets" : 1
				}

			}
, 			{
				"box" : 				{
					"maxclass" : "message",
					"text" : "print",
					"fontsize" : 9.0,
					"outlettype" : [ "" ],
					"patching_rect" : [ 224.0, 189.0, 33.0, 17.0 ],
					"id" : "obj-1",
					"fontname" : "Osaka",
					"numinlets" : 2,
					"numoutlets" : 1
				}

			}
, 			{
				"box" : 				{
					"maxclass" : "number",
					"fontsize" : 9.0,
					"outlettype" : [ "int", "bang" ],
					"bgcolor" : [ 0.866667, 0.866667, 0.866667, 1.0 ],
					"patching_rect" : [ 338.0, 324.0, 35.0, 19.0 ],
					"htextcolor" : [ 0.870588, 0.870588, 0.870588, 1.0 ],
					"id" : "obj-2",
					"fontname" : "Osaka",
					"numinlets" : 1,
					"triscale" : 0.9,
					"numoutlets" : 2
				}

			}
, 			{
				"box" : 				{
					"maxclass" : "number",
					"fontsize" : 9.0,
					"outlettype" : [ "int", "bang" ],
					"bgcolor" : [ 0.866667, 0.866667, 0.866667, 1.0 ],
					"patching_rect" : [ 296.0, 324.0, 35.0, 19.0 ],
					"htextcolor" : [ 0.870588, 0.870588, 0.870588, 1.0 ],
					"id" : "obj-3",
					"fontname" : "Osaka",
					"numinlets" : 1,
					"triscale" : 0.9,
					"numoutlets" : 2
				}

			}
, 			{
				"box" : 				{
					"maxclass" : "number",
					"fontsize" : 9.0,
					"outlettype" : [ "int", "bang" ],
					"bgcolor" : [ 0.866667, 0.866667, 0.866667, 1.0 ],
					"patching_rect" : [ 255.0, 324.0, 35.0, 19.0 ],
					"htextcolor" : [ 0.870588, 0.870588, 0.870588, 1.0 ],
					"id" : "obj-4",
					"fontname" : "Osaka",
					"numinlets" : 1,
					"triscale" : 0.9,
					"numoutlets" : 2
				}

			}
, 			{
				"box" : 				{
					"maxclass" : "number",
					"fontsize" : 9.0,
					"outlettype" : [ "int", "bang" ],
					"bgcolor" : [ 0.866667, 0.866667, 0.866667, 1.0 ],
					"patching_rect" : [ 213.0, 324.0, 35.0, 19.0 ],
					"htextcolor" : [ 0.870588, 0.870588, 0.870588, 1.0 ],
					"id" : "obj-5",
					"fontname" : "Osaka",
					"numinlets" : 1,
					"triscale" : 0.9,
					"numoutlets" : 2
				}

			}
, 			{
				"box" : 				{
					"maxclass" : "number",
					"fontsize" : 9.0,
					"outlettype" : [ "int", "bang" ],
					"bgcolor" : [ 0.866667, 0.866667, 0.866667, 1.0 ],
					"patching_rect" : [ 172.0, 324.0, 35.0, 19.0 ],
					"htextcolor" : [ 0.870588, 0.870588, 0.870588, 1.0 ],
					"id" : "obj-6",
					"fontname" : "Osaka",
					"numinlets" : 1,
					"triscale" : 0.9,
					"numoutlets" : 2
				}

			}
, 			{
				"box" : 				{
					"maxclass" : "number",
					"fontsize" : 9.0,
					"outlettype" : [ "int", "bang" ],
					"bgcolor" : [ 0.866667, 0.866667, 0.866667, 1.0 ],
					"patching_rect" : [ 130.0, 324.0, 35.0, 19.0 ],
					"htextcolor" : [ 0.870588, 0.870588, 0.870588, 1.0 ],
					"id" : "obj-7",
					"fontname" : "Osaka",
					"numinlets" : 1,
					"triscale" : 0.9,
					"numoutlets" : 2
				}

			}
, 			{
				"box" : 				{
					"maxclass" : "comment",
					"text" : "Read analog inputs every 35 milliseconds (do not use a faster time with a baud rate of 9600).",
					"linecount" : 2,
					"fontsize" : 9.0,
					"patching_rect" : [ 152.0, 48.0, 237.0, 32.0 ],
					"id" : "obj-8",
					"fontname" : "Osaka",
					"numinlets" : 1,
					"numoutlets" : 0
				}

			}
, 			{
				"box" : 				{
					"maxclass" : "newobj",
					"text" : "metro 35",
					"fontsize" : 9.0,
					"outlettype" : [ "bang" ],
					"patching_rect" : [ 130.0, 81.0, 51.0, 19.0 ],
					"id" : "obj-10",
					"fontname" : "Osaka",
					"numinlets" : 2,
					"numoutlets" : 1
				}

			}
, 			{
				"box" : 				{
					"maxclass" : "newobj",
					"text" : "unpack i i i i i i",
					"fontsize" : 9.0,
					"outlettype" : [ "int", "int", "int", "int", "int", "int" ],
					"patching_rect" : [ 130.0, 298.0, 227.0, 19.0 ],
					"id" : "obj-11",
					"fontname" : "Osaka",
					"numinlets" : 1,
					"numoutlets" : 6
				}

			}
, 			{
				"box" : 				{
					"maxclass" : "comment",
					"text" : "Write pin 13 to HIGH(1) or LOW(0).",
					"fontsize" : 9.0,
					"patching_rect" : [ 243.0, 134.0, 169.0, 19.0 ],
					"id" : "obj-12",
					"fontname" : "Osaka",
					"numinlets" : 1,
					"numoutlets" : 0
				}

			}
, 			{
				"box" : 				{
					"maxclass" : "newobj",
					"text" : "asciimessage2max",
					"fontsize" : 9.0,
					"outlettype" : [ "" ],
					"patching_rect" : [ 130.0, 250.0, 92.0, 19.0 ],
					"id" : "obj-13",
					"fontname" : "Osaka",
					"numinlets" : 1,
					"numoutlets" : 1
				}

			}
, 			{
				"box" : 				{
					"maxclass" : "newobj",
					"text" : "max2asciimessage",
					"fontsize" : 9.0,
					"outlettype" : [ "" ],
					"patching_rect" : [ 130.0, 188.0, 90.0, 19.0 ],
					"id" : "obj-14",
					"fontname" : "Osaka",
					"numinlets" : 1,
					"numoutlets" : 1
				}

			}
, 			{
				"box" : 				{
					"maxclass" : "message",
					"text" : "w d 13 $1",
					"fontsize" : 9.0,
					"outlettype" : [ "" ],
					"patching_rect" : [ 223.0, 160.0, 56.0, 17.0 ],
					"id" : "obj-16",
					"fontname" : "Osaka",
					"numinlets" : 2,
					"numoutlets" : 1
				}

			}
, 			{
				"box" : 				{
					"maxclass" : "newobj",
					"text" : "route a",
					"fontsize" : 9.0,
					"outlettype" : [ "", "" ],
					"patching_rect" : [ 130.0, 274.0, 41.0, 19.0 ],
					"id" : "obj-17",
					"fontname" : "Osaka",
					"numinlets" : 1,
					"numoutlets" : 2
				}

			}
, 			{
				"box" : 				{
					"maxclass" : "newobj",
					"text" : "metro 1",
					"fontsize" : 9.0,
					"outlettype" : [ "bang" ],
					"patching_rect" : [ 68.0, 106.0, 47.0, 19.0 ],
					"id" : "obj-21",
					"fontname" : "Osaka",
					"numinlets" : 2,
					"numoutlets" : 1
				}

			}
, 			{
				"box" : 				{
					"maxclass" : "newobj",
					"text" : "serial a 115200 8 1 0",
					"fontsize" : 9.0,
					"outlettype" : [ "int", "" ],
					"patching_rect" : [ 130.0, 224.0, 106.049995, 19.0 ],
					"id" : "obj-22",
					"fontname" : "Osaka",
					"numinlets" : 1,
					"numoutlets" : 2
				}

			}
, 			{
				"box" : 				{
					"maxclass" : "comment",
					"text" : "Set serial to the com port matching the Arduino Board on your system. To find that out, send serial the print message.",
					"linecount" : 6,
					"frgb" : [ 0.713726, 0.0, 0.0, 1.0 ],
					"fontsize" : 9.0,
					"patching_rect" : [ 326.0, 161.0, 100.0, 83.0 ],
					"id" : "obj-23",
					"fontname" : "Osaka",
					"numinlets" : 1,
					"textcolor" : [ 0.713726, 0.0, 0.0, 1.0 ],
					"numoutlets" : 0
				}

			}
, 			{
				"box" : 				{
					"maxclass" : "comment",
					"text" : "Read analog inputs.",
					"fontsize" : 9.0,
					"patching_rect" : [ 164.0, 107.0, 100.0, 19.0 ],
					"id" : "obj-24",
					"fontname" : "Osaka",
					"numinlets" : 1,
					"numoutlets" : 0
				}

			}
, 			{
				"box" : 				{
					"maxclass" : "comment",
					"text" : "For use with the Arduino SimpleMessageSystem example 1.",
					"fontsize" : 9.0,
					"patching_rect" : [ 18.0, 13.0, 342.0, 19.0 ],
					"id" : "obj-25",
					"fontname" : "Osaka",
					"numinlets" : 1,
					"numoutlets" : 0
				}

			}
, 			{
				"box" : 				{
					"maxclass" : "comment",
					"text" : "Version 1.1 of this patch.",
					"fontsize" : 9.0,
					"patching_rect" : [ 18.0, 31.0, 224.0, 19.0 ],
					"id" : "obj-26",
					"fontname" : "Osaka",
					"numinlets" : 1,
					"numoutlets" : 0
				}

			}
 ],
		"lines" : [ 			{
				"patchline" : 				{
					"source" : [ "obj-14", 0 ],
					"destination" : [ "obj-22", 0 ],
					"hidden" : 0,
					"midpoints" : [  ]
				}

			}
, 			{
				"patchline" : 				{
					"source" : [ "obj-21", 0 ],
					"destination" : [ "obj-22", 0 ],
					"hidden" : 0,
					"midpoints" : [ 77.5, 211.0, 139.5, 211.0 ]
				}

			}
, 			{
				"patchline" : 				{
					"source" : [ "obj-1", 0 ],
					"destination" : [ "obj-22", 0 ],
					"hidden" : 0,
					"midpoints" : [ 233.5, 218.5, 139.5, 218.5 ]
				}

			}
, 			{
				"patchline" : 				{
					"source" : [ "obj-22", 0 ],
					"destination" : [ "obj-13", 0 ],
					"hidden" : 0,
					"midpoints" : [  ]
				}

			}
, 			{
				"patchline" : 				{
					"source" : [ "obj-33", 0 ],
					"destination" : [ "obj-16", 0 ],
					"hidden" : 0,
					"midpoints" : [  ]
				}

			}
, 			{
				"patchline" : 				{
					"source" : [ "obj-32", 0 ],
					"destination" : [ "obj-14", 0 ],
					"hidden" : 0,
					"midpoints" : [  ]
				}

			}
, 			{
				"patchline" : 				{
					"source" : [ "obj-10", 0 ],
					"destination" : [ "obj-32", 0 ],
					"hidden" : 0,
					"midpoints" : [  ]
				}

			}
, 			{
				"patchline" : 				{
					"source" : [ "obj-30", 0 ],
					"destination" : [ "obj-10", 0 ],
					"hidden" : 0,
					"midpoints" : [  ]
				}

			}
, 			{
				"patchline" : 				{
					"source" : [ "obj-29", 0 ],
					"destination" : [ "obj-21", 0 ],
					"hidden" : 0,
					"midpoints" : [  ]
				}

			}
, 			{
				"patchline" : 				{
					"source" : [ "obj-27", 0 ],
					"destination" : [ "obj-29", 0 ],
					"hidden" : 0,
					"midpoints" : [  ]
				}

			}
, 			{
				"patchline" : 				{
					"source" : [ "obj-11", 5 ],
					"destination" : [ "obj-2", 0 ],
					"hidden" : 0,
					"midpoints" : [  ]
				}

			}
, 			{
				"patchline" : 				{
					"source" : [ "obj-11", 4 ],
					"destination" : [ "obj-3", 0 ],
					"hidden" : 0,
					"midpoints" : [  ]
				}

			}
, 			{
				"patchline" : 				{
					"source" : [ "obj-11", 3 ],
					"destination" : [ "obj-4", 0 ],
					"hidden" : 0,
					"midpoints" : [  ]
				}

			}
, 			{
				"patchline" : 				{
					"source" : [ "obj-11", 2 ],
					"destination" : [ "obj-5", 0 ],
					"hidden" : 0,
					"midpoints" : [  ]
				}

			}
, 			{
				"patchline" : 				{
					"source" : [ "obj-17", 0 ],
					"destination" : [ "obj-11", 0 ],
					"hidden" : 0,
					"midpoints" : [  ]
				}

			}
, 			{
				"patchline" : 				{
					"source" : [ "obj-13", 0 ],
					"destination" : [ "obj-17", 0 ],
					"hidden" : 0,
					"midpoints" : [  ]
				}

			}
, 			{
				"patchline" : 				{
					"source" : [ "obj-16", 0 ],
					"destination" : [ "obj-14", 0 ],
					"hidden" : 0,
					"midpoints" : [ 232.5, 183.0, 139.5, 183.0 ]
				}

			}
, 			{
				"patchline" : 				{
					"source" : [ "obj-11", 1 ],
					"destination" : [ "obj-6", 0 ],
					"hidden" : 0,
					"midpoints" : [  ]
				}

			}
, 			{
				"patchline" : 				{
					"source" : [ "obj-11", 0 ],
					"destination" : [ "obj-7", 0 ],
					"hidden" : 0,
					"midpoints" : [  ]
				}

			}
 ]
	}

}
